{
  "accessors": [
    {
      "bufferView": 1,
      "componentType": 5126,
      "count": 1341,
      "max": [
        4.2297501564025879,
        21.493610382080078,
        8.2768898010253906
      ],
      "min": [
        -4.2297501564025879,
        -0.026690000668168068,
        -7.8024101257324219
      ],
      "type": "VEC3"
    },
    {
      "bufferView": 1,
      "byteOffset": 16092,
      "componentType": 5126,
      "count": 1341,
      "max": [
        0.97700083255767822,
        1,
        1
      ],
      "min": [
        -0.97699660062789917,
        -1,
        -1
      ],
      "type": "VEC3"
    },
    {
      "bufferView": 2,
      "componentType": 5126,
      "count": 1341,
      "max": [
        1,
        0.99999046325683594,
        0.99999046325683594,
        1
      ],
      "min": [
        -0.9102281928062439,
        -0.99319684505462646,
        -0.99999046325683594,
        1
      ],
      "type": "VEC4"
    },
    {
      "bufferView": 0,
      "componentType": 5125,
      "count": 5820,
      "max": [
        1340
      ],
      "min": [
        0
      ],
      "type": "SCALAR"
    },
    {
      "bufferView": 1,
      "byteOffset": 32184,
      "componentType": 5126,
      "count": 2746,
      "max": [
        1.3422499895095825,
        21.493610382080078,
        7.5878100395202637
      ],
      "min": [
        -1.3422499895095825,
        0.6363300085067749,
        -7.674680233001709
      ],
      "type": "VEC3"
    },
    {
      "bufferView": 1,
      "byteOffset": 65136,
      "componentType": 5126,
      "count": 2746,
      "max": [
        1,
        1,
        1
      ],
      "min": [
        -1,
        -1,
        -1
      ],
      "type": "VEC3"
    },
    {
      "bufferView": 2,
      "byteOffset": 21456,
      "componentType": 5126,
      "count": 2746,
      "max": [
        1,
        1,
        1,
        1
      ],
      "min": [
        -0.99064314365386963,
        -1,
        -1,
        -1
      ],
      "type": "VEC4"
    },
    {
      "bufferView": 0,
      "byteOffset": 23280,
      "componentType": 5125,
      "count": 9276,
      "max": [
        2745
      ],
      "min": [
        0
      ],
      "type": "SCALAR"
    },
    {
      "bufferView": 1,
      "byteOffset": 98088,
      "componentType": 5126,
      "count": 1648,
      "max": [
        0.40165999531745911,
        1.8311699628829956,
        8.1347599029541016
      ],
      "min": [
        -0.40165999531745911,
        0.1154400035738945,
        -7.6602702140808105
      ],
      "type": "VEC3"
    },
    {
      "bufferView": 1,
      "byteOffset": 117864,
      "componentType": 5126,
      "count": 1648,
      "max": [
        1,
        1,
        1
      ],
      "min": [
        -1,
        -1,
        -1
      ],
      "type": "VEC3"
    },
    {
      "bufferView": 2,
      "byteOffset": 65392,
      "componentType": 5126,
      "count": 1648,
      "max": [
        1,
        1,
        1,
        1
      ],
      "min": [
        -0.74620205163955688,
        -0.99875438213348389,
        -1,
        -1
      ],
      "type": "VEC4"
    },
    {
      "bufferView": 0,
      "byteOffset": 60384,
      "componentType": 5125,
      "count": 4800,
      "max": [
        1647
      ],
      "min": [
        0
      ],
      "type": "SCALAR"
    },
    {
      "bufferView": 1,
      "byteOffset": 137640,
      "componentType": 5126,
      "count": 909,
      "max": [
        4.2297501564025879,
        21.24091911315918,
        6.5069398880004883
      ],
      "min": [
        -4.2297501564025879,
        1.2919000387191772,
        1.8567399978637695
      ],
      "type": "VEC3"
    },
    {
      "bufferView": 1,
      "byteOffset": 148548,
      "componentType": 5126,
      "count": 909,
      "max": [
        1,
        0.99965882301330566,
        0.9999731183052063
      ],
      "min": [
        -1,
        -0.92069625854492188,
        -0.9523918628692627
      ],
      "type": "VEC3"
    },
    {
      "bufferView": 2,
      "byteOffset": 91760,
      "componentType": 5126,
      "count": 909,
      "max": [
        1,
        1,
        0.99631547927856445,
        1
      ],
      "min": [
        -0.92716968059539795,
        -0.96547424793243408,
        -0.99631547927856445,
        -1
      ],
      "type": "VEC4"
    },
    {
      "bufferView": 0,
      "byteOffset": 79584,
      "componentType": 5125,
      "count": 3294,
      "max": [
        908
      ],
      "min": [
        0
      ],
      "type": "SCALAR"
    }
  ],
  "asset": {
    "extras": {
      "author": "jswing_1 (https://sketchfab.com/jswing_1)",
      "license": "CC-BY-4.0 (http://creativecommons.org/licenses/by/4.0/)",
      "source": "https://sketchfab.com/models/168f8a19be66400fa39375fbe7e73c67",
      "title": "Razor Scooter"
    },
    "generator": "Sketchfab-3.19.4",
    "version": "2.0"
  },
  "bufferViews": [
    {
      "buffer": 0,
      "byteLength": 92760,
      "byteOffset": 0,
      "name": "floatBufferViews",
      "target": 34963
    },
    {
      "buffer": 0,
      "byteLength": 159456,
      "byteOffset": 92760,
      "byteStride": 12,
      "name": "floatBufferViews",
      "target": 34962
    },
    {
      "buffer": 0,
      "byteLength": 106304,
      "byteOffset": 252216,
      "byteStride": 16,
      "name": "floatBufferViews",
      "target": 34962
    }
  ],
  "buffers": [
    {
      "byteLength": 358520,
      "uri": "scene.bin"
    }
  ],
  "materials": [
    {
      "doubleSided": true,
      "emissiveFactor": [
        0,
        0,
        0
      ],
      "name": "Blue",
      "pbrMetallicRoughness": {
        "baseColorFactor": [
          0.51121597770000005,
          0.51121597770000005,
          0.51121597770000005,
          1
        ],
        "metallicFactor": 0,
        "roughnessFactor": 0.59999999999999998
      }
    },
    {
      "doubleSided": true,
      "name": "Chrome",
      "pbrMetallicRoughness": {
        "baseColorFactor": [
          0.28480088339999998,
          0.28480088339999998,
          0.28480088339999998,
          1
        ],
        "metallicFactor": 0,
        "roughnessFactor": 0.59999999999999998
      }
    },
    {
      "doubleSided": true,
      "emissiveFactor": [
        0,
        0,
        0
      ],
      "name": "Plastic_Grey.001",
      "pbrMetallicRoughness": {
        "baseColorFactor": [
          0.49234805320000002,
          0.49234805320000002,
          0.49234805320000002,
          1
        ],
        "metallicFactor": 0,
        "roughnessFactor": 0.59999999999999998
      }
    },
    {
      "doubleSided": true,
      "emissiveFactor": [
        0,
        0,
        0
      ],
      "name": "Plastic_Black.001",
      "pbrMetallicRoughness": {
        "baseColorFactor": [
          0.17788264440000001,
          0.17788264440000001,
          0.17788264440000001,
          1
        ],
        "metallicFactor": 0,
        "roughnessFactor": 0.59999999999999998
      }
    }
  ],
  "meshes": [
    {
      "name": "Razor_Scooter_0",
      "primitives": [
        {
          "attributes": {
            "NORMAL": 1,
            "POSITION": 0,
            "TANGENT": 2
          },
          "indices": 3,
          "material": 0,
          "mode": 4
        }
      ]
    },
    {
      "name": "Razor_Scooter_1",
      "primitives": [
        {
          "attributes": {
            "NORMAL": 5,
            "POSITION": 4,
            "TANGENT": 6
          },
          "indices": 7,
          "material": 1,
          "mode": 4
        }
      ]
    },
    {
      "name": "Razor_Scooter_2",
      "primitives": [
        {
          "attributes": {
            "NORMAL": 9,
            "POSITION": 8,
            "TANGENT": 10
          },
          "indices": 11,
          "material": 2,
          "mode": 4
        }
      ]
    },
    {
      "name": "Razor_Scooter_3",
      "primitives": [
        {
          "attributes": {
            "NORMAL": 13,
            "POSITION": 12,
            "TANGENT": 14
          },
          "indices": 15,
          "material": 3,
          "mode": 4
        }
      ]
    }
  ],
  "nodes": [
    {
      "children": [
        1
      ],
      "name": "RootNode (gltf orientation matrix)",
      "rotation": [
        -0.70710678118654746,
        -0,
        -0,
        0.70710678118654757
      ]
    },
    {
      "children": [
        2
      ],
      "name": "RootNode (model correction matrix)"
    },
    {
      "children": [
        3
      ],
      "name": "Root"
    },
    {
      "children": [
        4,
        5,
        6,
        7
      ],
      "matrix": [
        1,
        0,
        0,
        0,
        0,
        -0,
        1,
        0,
        0,
        -1,
        -0,
        0,
        0,
        0,
        0,
        1
      ],
      "name": "Razor_Scooter"
    },
    {
      "mesh": 0,
      "name": "Razor_Scooter_0"
    },
    {
      "mesh": 1,
      "name": "Razor_Scooter_1"
    },
    {
      "mesh": 2,
      "name": "Razor_Scooter_2"
    },
    {
      "mesh": 3,
      "name": "Razor_Scooter_3"
    }
  ],
  "scene": 0,
  "scenes": [
    {
      "name": "OSG_Scene",
      "nodes": [
        0
      ]
    }
  ]
}

